# xmcd
#
# Track frame offsets: 
#        150
#        14519
#        29248
#        44304
#        59408
#        72081
#        87549
#        102818
#        117330
#        131430
#        145348
#        159622
#        174492
#        188690
#        202760
#        217733
#        231052
#        246005
#        259684
#        273352
#        287141
#        307232
#        320882
#        334400
#
# Disc length: 4645 seconds
#
# Revision: 4
# Processed by: cddbd v1.5.2PL0 Copyright (c) Steve Scherf et al.
# Submitted via: ExactAudioCopy v1.0b3
#
DISCID=6c122318
DTITLE=Artie Shaw - Artie Shaw 10CD Set_CD10
DYEAR=2005
DGENRE=Jazz
TTITLE0=Somebody Nobody Loves
TTITLE1=Not Mine
TTITLE2=Absent-Minded Moon
TTITLE3=Hindustan
TTITLE4=Carnival
TTITLE5=Needlenose
TTITLE6=Two In One Blues
TTITLE7=Sometimes I Feel Like A Motherless Child
TTITLE8=Accentuate The Positive
TTITLE9=Let's Take The Long Way Home
TTITLE10=Jumpin' On The Merry-Go-Round
TTITLE11=I'll Never Be The Same
TTITLE12=Can't Help Lovin' That Man
TTITLE13='S Wonderful
TTITLE14=Bedford Drive
TTITLE15=The Graptown Grapple
TTITLE16=September Song
TTITLE17=Little Jazz
TTITLE18=But Not For Me
TTITLE19=Tea For Two
TTITLE20=Summertime
TTITLE21=Easy To Love
TTITLE22=Time On My Hands
TTITLE23=Tabu
EXTD=YEAR: 2005
EXTT0=
EXTT1=
EXTT2=
EXTT3=
EXTT4=
EXTT5=
EXTT6=
EXTT7=
EXTT8=
EXTT9=
EXTT10=
EXTT11=
EXTT12=
EXTT13=
EXTT14=
EXTT15=
EXTT16=
EXTT17=
EXTT18=
EXTT19=
EXTT20=
EXTT21=
EXTT22=
EXTT23=
PLAYORDER=
